<?xml version="1.0" encoding="UTF-8"?>
<svg id="Layer_2" data-name="Layer 2" xmlns="http://www.w3.org/2000/svg" xmlns:xlink="http://www.w3.org/1999/xlink" viewBox="0 0 72.07 112.87">
  <defs>
    <style>
      .cls-1 {
        clip-path: url(#clippath);
      }

      .cls-2 {
        stroke-width: 0px;
      }

      .cls-2, .cls-3 {
        fill: none;
      }

      .cls-3 {
        stroke: #f8f8f8;
        stroke-linecap: round;
        stroke-linejoin: round;
        stroke-width: .75px;
      }
    </style>
    <clipPath id="clippath">
      <rect class="cls-2" width="72.07" height="112.87"/>
    </clipPath>
  </defs>
  <g id="shell-cream">
    <g class="cls-1">
      <path class="cls-3" d="M19.38,106.66c-2.26,2.22-8.96,7.35-11.46,5.41-3.15-2.44.28-12.7,2.95-15.66,2.23-2.47,11.8-6.99,12.75-3.81.68,2.25-6.65,2.84-9,2.72-3.64-.19-11.56-2.52-13.44-5.64-1.69-2.81-.41-10.21,1.21-13.06.62-1.1,3.21-2.07,4.08-2.99.75-.79,1.63-2.85,2.37-3.65,1.54-1.68,9.02-4.21,7.21-5.6,1.13.86-.76,5.23-2.18,5.24-2.52.02-4.15-6.75-4-9.27.12-2.13,2.93-5.73,4.27-7.39,1.61-1.99,5.13-6.12,7.57-6.89,2.13-.67,7.63-.7,8.87,1.17.42.64-.06,2.91-.82,2.96-1.91.13-2.98-5.11-3.06-7.02-.07-1.62,1.53-4.61,2.05-6.14.76-2.22,1.54-7.13,3.12-8.88,2.23-2.47,8.82-6.53,12.03-5.67,2.47.66,6.33,5.88,5.83,8.38-.16.8-3.54,1.57-2.75,1.77-1.83-.48-3.27-4.83-3.55-6.71-.45-2.99.67-9.3,2.26-11.86,2.88-4.65,12.15-11.77,17.42-13.23,2.09-.58,7.57-.97,8.61.92"/>
    </g>
  </g>
</svg>