<?xml version="1.0" encoding="UTF-8"?>
<svg id="Layer_2" data-name="Layer 2" xmlns="http://www.w3.org/2000/svg" xmlns:xlink="http://www.w3.org/1999/xlink" viewBox="0 0 266.33 190.15">
  <defs>
    <style>
      .cls-1 {
        clip-path: url(#clippath);
      }

      .cls-2 {
        fill: none;
      }

      .cls-2, .cls-3 {
        stroke-width: 0px;
      }

      .cls-3 {
        fill: #98de7f;
      }
    </style>
    <clipPath id="clippath">
      <rect class="cls-2" y="0" width="266.33" height="190.15"/>
    </clipPath>
  </defs>
  <g id="o2">
    <g class="cls-1">
      <path class="cls-3" d="M136.3,77.28c-.6,0-1.21.21-1.68.64l-.37.4c-2.49.94-8.83,3.67-11.88,5.86-.86.61-1.85,1.07-2.6,1.84-.48.54-.76,1.22-1.1,1.86l-.82,1.18c.87-.48,1.49-1.31,2.24-1.96.78-.63,1.53-.62,2.46-.96,1.56-.46,3.11-.94,4.7-1.28,2.28-.54,4.59-.98,6.89-1.4l.37-.08c.63,1.14,1.43,2.22,1.97,3.13l.21.35c.46.85.87,1.72,1.15,2.66l.09.65v.05c-.15.47-.3.94-.43,1.42l-.23.63-.06.09-.12.1c-2.77,1.14-5.53,2.33-8.1,3.96-1.46.87-2.96,1.77-4.24,2.94-1.61-3.85-3.45-7.59-5.14-11.4.68,5.5,1.86,10.92,2.79,16.37l.08.44v.04c.26,1.06.9,1.9,1.95,1.9.2,0,.42-.03.66-.1.95-.23,1.6-1.32,1.5-2.35l.8-.65c2.8-1.62,5.88-2.66,8.86-3.83,2.95-.82,5.93-1.89,7-5.32.54-1.84,1.19-3.77.72-5.7-.64-3.43-2.93-5.93-4.96-8.5.02-.94-.39-1.89-1.15-2.4-.46-.36-1.03-.54-1.59-.54"/>
      <path class="cls-3" d="M168.32,64.96l-.97.11-.2.04c-3.18.07-6.39.79-9.21,2.43-2.56,1.35-4.22,3.93-5.66,6.48l.06.03c.59-.54,1.21-1.03,1.84-1.52.5,3.24,1.05,6.47,1.74,9.67.24,1.02.4,2.05.68,3.06.18,1.08.83,2.06,1.9,2.2.17.02.34.02.51.02,1.66,0,3.27-.76,4.86-1.26,2.85-.95,5.5-2.44,7.92-4.31,2.05-1.24,3.74-3.55,1.95-5.88-.73-.53-1.89-3.16-3.16-7.33l-.09-.43c-.16-.83-.1-1.74-.65-2.41-.37-.5-.93-.82-1.52-.9M159.53,83.04c-1.74-3.54-3.42-7.12-5.25-10.61,2.73-2.3,5.63-2.89,8.41-2.89,1.03,0,2.04.08,3.01.19h.1c.15,1.28.45,2.54.77,3.77.34,1.4.74,2.83,1.36,4.13-2.06,1.71-3.19,2.52-5.38,3.75-1,.57-1.99,1.16-3.02,1.66"/>
      <path class="cls-3" d="M10.23,128.22l-3.51,3.41c.27.36.55.71.81,1.07,6.24,8.49,9.93,18.81,10.6,29.61.05.73.08,1.45.09,2.18v.41s4.66-.14,4.66-.14v-.32s0-.09,0-.09c-.32-13.22-4.75-25.91-12.55-36.03-.03-.04-.06-.07-.08-.11"/>
      <path class="cls-3" d="M154.66,136.98c-.66,0-1.32.06-1.94.16-.32.05-.64.13-.96.22-1.46.44-2.85,1.29-4.09,2.24-.85.65-1.58,1.43-2.38,2.14-.74.66-1.58.99-2.43,1.43-.92.47-1.93,1.14-2.7,2.01-.11.12-.21.24-.3.36-1.69,1.36-3.12,3.11-3.95,5.11-.97,2.33-1.14,5,0,7.78.56,1.36,1.52,2.48,2.8,2.99.57.23,1.15.29,1.73.29.38,0,.76-.03,1.15-.06.39-.03.79-.06,1.18-.06.1,0,.19,0,.29,0,1.46.07,2.49.76,2.81,2.41.23,1.19.25,2.77,1.62,2.93.09.01.17.02.26.02,1.14,0,2.47-.79,3.43-1.33,1.88-1.07,3.61-2.4,5.2-3.95,2.73-2.67,5.6-5.11,8.1-8.07.78-.93,1.63-2.05,1.79-3.36.23-2-1.33-3.09-2.32-4.43-1.11-1.5-.98-3.76-1.99-5.43-.86-1.43-2.45-2.1-3.82-2.73-.58-.27-1.21-.44-1.85-.55-.53-.09-1.07-.13-1.61-.13M145.54,142.76c.54-.5,1.07-1.01,1.64-1.47,1.09-.87,2.48-1.53,3.82-1.6.51-.03,1.07-.06,1.63-.06.09,0,.18,0,.27,0,.75.02,1.5.1,2.14.35,2.81,1.09,4.73,2.7,5.37,6.09.25,1.34.68,2.09,1.55,3.06.87.97,1.88,2.16,1.49,3.67-.3,1.13-1.38,1.89-2.12,2.64-1.11,1.14-2.15,2.25-3.33,3.3-2.26,2.01-4.34,4.61-7.26,5.41-.23.06-.43.09-.6.09-1.87,0-1.13-3.22-2.41-4.47-.69-.67-1.55-.84-2.44-.84-.42,0-.84.04-1.27.07-.42.03-.83.07-1.22.07-.18,0-.36,0-.53-.03-3.2-.33-4.35-4.08-4.29-7.18.02-.87.13-1.8.38-2.67.23-.78.58-1.5,1.09-2.08.1-.02.21-.07.3-.11,1.21-.57,2.42-1.14,3.62-1.71.36-.1.71-.34,1.04-.63.44-.35.84-.8,1.07-1.25.02-.04.04-.08.06-.12.14-.26.22-.53.01-.56"/>
      <path class="cls-3" d="M89.78,162.77c-.26,0-.51.01-.77.04-2.61.3-5.21,2.86-5.3,5.87,0,.14,0,.27,0,.42.02.89.13,1.87-.17,2.69,0,0,0,.02-.01.03-.3.8-.86,1.45-1.16,2.28-.57,1.6-.83,2.96-.42,4.66.45,1.84,1.09,3.65,2.34,4.98.67.71,1.23,1.58,1.98,2.19.73.59,1.58,1.04,2.43,1.39,2,.82,4.11.6,6.11,1.28,1.18.4,2.23,1.16,3.39,1.16.1,0,.2,0,.3-.02.81.26,1.64.41,2.47.41.95,0,1.92-.19,2.88-.62,2.78-1.23,5.74-4.22,6.77-7.41.48-1.49.56-3.13-.05-4.59-.59-1.43-1.8-2.3-2.75-3.39-1.06-1.22-1.63-2.52-.75-4.06.57-1,1.55-2.34.72-3.5-.49-.69-1.36-1.17-2.22-1.52-.52-.21-1.03-.38-1.46-.53-.9-.31-1.8-.51-2.7-.67-1.03-.18-2.08-.28-3.15-.38-1.03-.1-2.03-.3-3.05-.47-.42-.07-.83-.08-1.24-.08-.18,0-.37,0-.55,0-.17,0-.35,0-.52,0-.11,0-.22,0-.32,0-.94-.02-1.87-.17-2.8-.17M86.71,164.94l.03-.12s.01.08-.03.12M86.61,165.42c.25-.04.5-.05.75-.05.62,0,1.25.09,1.86.14,1.27.1,2.53-.04,3.78.17.72.12,1.43.22,2.15.3,1.86.22,3.71.4,5.52.88.56.15,1.12.32,1.68.54.88.34,2.46.91,2.92,1.92.51,1.1-.8,2.28-1.17,3.23-.9,2.35.96,4.01,2.33,5.44,1.13,1.18,1.92,2.52,1.85,4.33-.06,1.56-.74,3.2-1.82,4.22-.86.81-1.89,1.13-2.97,1.13-.69,0-1.4-.13-2.1-.35.04-.1.03-.17-.03-.2-1.29-.61-2.57-1.22-3.86-1.83-.06-.05-.14-.07-.23-.07-.27,0-.62.22-.98.52-1.11-.21-2.24-.24-3.35-.48-2.77-.6-5.1-2.44-6.79-4.95-.67-.99-1.1-2.46-1.42-3.64-.47-1.74-.29-3.35.47-4.96.06-.12.11-.23.17-.34.48-.93.98-1.63,1.06-2.81,0-.04,0-.07,0-.11.04-.73-.04-1.47,0-2.2l.17-.82Z"/>
      <path class="cls-3" d="M96.73,173.15c-.2,0-.42.06-.68.21-.63.36-.96,1.27-.98,1.88-.02.6.22,1.26.65,1.78.04.2.12.4.25.57.34.44.69.61,1.02.61.15,0,.29-.03.43-.1.01,0,.02,0,.03,0,.12-.03.21-.08.28-.15.01,0,.03,0,.04,0,2.68-.22,2.8-3.76.58-4.56-.27-.1-.54-.14-.81-.14-.12,0-.24,0-.36.03-.15-.07-.3-.12-.46-.12"/>
      <path class="cls-3" d="M151.67,147.76c-.11,0-.23,0-.35.02-.46.06-.91.3-1.29.64-.29.12-.55.33-.76.59-.22.16-.4.35-.51.55-.08.15-.13.3-.16.46-.27.4-.36.95-.14,1.62.02.06.05.13.08.19.14.83,1,1.27,1.88,1.27.99,0,2.01-.56,2.01-1.75.33-.39.56-.88.68-1.36.27-1.12-.11-2.24-1.43-2.24"/>
      <path class="cls-3" d="M85.3,142.06s-.09,0-.14.02c-2.32.47-4.52,1.81-5.73,4.17-.41.81-.5,1.7.22,2.3.55.46,1.24.7,1.9.87,1.06.27,2.53.39,2.89,1.78.22.83.03,1.84-.33,2.58l-.13.24-.42.16c-.22.06-.45.09-.68.09-.73,0-1.49-.28-2.02-.83-.36-.38-.64-.9-.56-1.47l.68-1.33c.14-.29.06-.39-.09-.39-.24,0-.67.23-.79.31-.64.43-1.37,1.09-1.72,1.85l-.68,1.22c-.19.5-.19,1.02-.02,1.52.32.94,1.29,1.48,2.12,1.66.24.05.49.08.73.08,2.06,0,4.08-1.79,5.31-3.45.97-1.3,2.12-3.8.97-5.39-.79-1.1-2.39-1.06-3.49-1.45-.62-.22-1.64-.76-1.49-1.65.43-.15.87-.23,1.31-.32.72-.14,1.47-.98,1.93-1.57.2-.25.71-1,.22-1"/>
      <path class="cls-3" d="M90.55,141.95c-.47,0-1.35.5-1.53.6l-1.42,1.01-.62.81c.29,1.78.61,3.57.75,5.36.04.6-.03,1.17-.06,1.76-.03.51-.07,1.17.34,1.61l2.04-.7,1.16-.85.62-.81-.15-1.08-.17.06c0-.21.03-.42.04-.61.03-.33.05-.64.06-.96-.23.13-.45.27-.68.4-.12.07-1.07.6-1.55.6-.16,0-.27-.06-.28-.2l.62-.81,1.42-1.01.41-.24c-.16-1.59-.44-3.17-.69-4.74-.03-.15-.14-.21-.3-.21"/>
      <path class="cls-3" d="M93.9,139.66l-.91.28c-.49.33-1,.77-1.35,1.27-.55.76-.9,1.51-.79,2.51.07.69.27,1.34.49,1.99l-.11.19-.15.19-.1.1-.3.28-.13.11-.37.31-.29.24-1,1.01-.44.81c.01.15.09.2.2.2.34,0,1.01-.53,1.09-.6.16-.13.32-.27.48-.4.49-.42.98-.84,1.45-1.29.38,1.43.62,2.92,1.19,4.27l1.26-.55c.5-.41,1.12-.94,1.37-1.6l.15-.39c.12-.3.04-.4-.12-.4-.05,0-.1,0-.16.03-.51-1.39-.71-2.9-1.15-4.32-.04-.14-.09-.28-.14-.41.18-.53.26-1.1.25-1.68,0-.7-.05-1.59-.46-2.16"/>
      <path class="cls-3" d="M98.4,140.91l-1.63.87-.86,1-.19.64c.32,1.43.5,2.89.79,4.32.13.62.22,1.37.5,1.92l.92.41c.56-.09,1.1-.38,1.6-.68.68-.4,1.33-.86,1.94-1.38,1.03-.86,1.96-1.84,2.95-2.76l.86-1,.18-.64-1.63.87-1.22,1.18-.53.52-.32.3s-.15.12-.2.16c.03-.02.08-.06.16-.11l-.28.24-.21.17-.22.15-.09.06-.37.19-.16.08h-.01s-.25.08-.25.08h-.1s-.51-.84-.51-.84c-.15-.56-.27-1.13-.38-1.71-.58.34-1.18.65-1.79.93l-.47.15-.12-.06.18-.64.86-1,1.03-.77s.04-.02.06-.03c-.15-.87-.29-1.75-.49-2.61M101.57,146.64s-.04.03-.04.03c0,0,.02-.01.04-.03"/>
      <path class="cls-3" d="M100.48,135.94l-.6.09-1.03.77c-.66.59-1.24,1.29-1.78,2.01-.36.49-.71,1-1.11,1.46l-.3.45-.14.36.09.18h.26s.93-.58.93-.58l1-1,.24-.32h.24s.43-.22.43-.22l.51-.36,1-1,.22-.31.21-.5-.18-1.04Z"/>
      <path class="cls-3" d="M102.69,141.41c-.26,0-.73.34-.97.52.07-.06.1-.08.1-.08s-.26.21-.36.27l-.41.29-.23.15s.06-.04.06-.04c0,0-.27.17-.35.23-.54.32-1.1.61-1.65.89-.02.01-.04.02-.06.03l-1.03.81-.86,1.05-.18.68.12.06.47-.16c.61-.3,1.21-.62,1.79-.97.79-.48,1.56-1.01,2.3-1.6l1-1.06.44-.85c0-.16-.07-.22-.18-.22"/>
      <path class="cls-3" d="M125.61,123.68l-1.55.82.13-.1h0c-.62.2-1.23.72-1.69,1.26-.33.22-.66.44-.99.65-1.05.67-2.11,1.3-3.14,1.99l-1.06.93-.66.93c-.12.3-.04.4.11.4.23,0,.64-.23.77-.32,1.95-1.29,3.95-2.44,5.8-3.89.44-.3.86-.66,1.25-1.04l.86-1,.18-.64ZM123.98,124.54l.11-.09-.1.09h0Z"/>
      <path class="cls-3" d="M122.71,128.67l-.6.1-1.03.77-.86,1-.18.64c.65,1.23,1.29,2.48,1.93,3.72.25.48.49.95.71,1.44l.74,1.13.75-.19c.44-.27.86-.62,1.22-1.02.48-.54.97-1.15,1.2-1.88l-.09-.42-.79.34-.04.03-.3-.46c-.22-.51-.47-.99-.72-1.49-.64-1.24-1.28-2.48-1.93-3.72"/>
      <path class="cls-3" d="M130.48,123.48l-1.63.86-.86,1-.18.64c.69,1.4,1.39,2.8,1.78,4.35l.53,1.22c.17.14.37.19.57.19.38,0,.79-.19,1.11-.35.75-.36,1.45-.86,2.12-1.39l.89-.73.61-.54.24-.2.68-.56.24-.17.59-.44c.84-.66,1.61-1.43,2.24-2.34l.06-.7-.34-.12-.79.34-1.06.93c-.12.14-.63.68-.71,1.04-.45.34-.87.71-1.3,1.08l-.19.16-.37.32-.38.32-.17.15c-.36.27-.6.52-1.03.58-.02,0-.05,0-.07,0-.66,0-.78-1.31-.93-1.82-.19-.63-.43-1.24-.69-1.83-.32.27-.64.55-.96.81l-.93.57-.33-.03-.03-.14.44-.81,1-1.01c.13-.11.26-.21.39-.32-.17-.36-.35-.72-.53-1.08"/>
      <path class="cls-3" d="M132.59,119.16l-.36.1c-.46.2-.84.55-1.23.89-.95.85-1.82,1.8-2.64,2.81l-.32.48-.15.38.1.19h.28s.98-.62.98-.62l.59-.6.17-.03.62-.33,1.11-.99c.34-.4.73-.83.91-1.36l.1-.7-.16-.22ZM130.19,121.61l.22-.26-.2.25s-.02,0-.02.01"/>
      <path class="cls-3" d="M134.85,122c-1.46.51-2.64,1.57-3.84,2.57-.13.11-.26.21-.39.32l-1,1.01-.44.81.03.15.33.03.93-.57c.33-.26.64-.54.96-.81.18-.15.35-.3.54-.44l.11-.09.16-.11.08-.06.06-.03.22-.11.03-.02.2-.08.93-.57,1-1,.23-.32.21-.49-.03-.15-.33-.03Z"/>
      <path class="cls-3" d="M140.97,116.26l-1.63.87-.86,1-.18.64c.65.99,1.32,1.97,1.88,3.03.25.48.51.98.67,1.52.16.54.23,1.1.47,1.61l.6-.09c1.61-.79,2.99-2.04,4.28-3.36.49-.5.97-1.02,1.45-1.52l.18-.19.05-.05c.36-.14.83-.49.88-.53l1-1.01.44-.81.04-.27c.02-.14-.04-.2-.15-.2-.34,0-1.13.59-1.15.6-1.23.95-2.31,2.11-3.39,3.25l-.31.33-.25.25-.25.24-.33.3-.14.11-.18.13h0l-.17.12c-.17-.43-.24-.9-.37-1.35-.16-.56-.42-1.09-.69-1.59-.56-1.06-1.22-2.04-1.88-3.03"/>
      <path class="cls-3" d="M150.22,110.37l-1.63.86-.86,1-.18.64c.63.9,1.22,1.82,1.89,2.68.51.65,1.2,1.63,2.05,1.63.06,0,.12,0,.18-.01.54-.09,1.05-.42,1.51-.75.61-.43,1.19-.9,1.75-1.41l.54-.51.55-.56.07-.08.53-.51.07-.07.11-.1c.63-.46,1.41-1.06,1.72-1.86.12-.3.04-.4-.12-.4-.23,0-.63.22-.76.32-.56.41-1.1.85-1.61,1.33l-.53.52-.45.46-.07.07-.48.47-.28.25-.03.02-.07.05-.22.15h-.08c-.78-.09-1.44-1.13-1.91-1.75-.6-.79-1.14-1.63-1.71-2.44"/>
      <path class="cls-3" d="M162.69,101.34l-.79.34-1.06.93c-.94.98-2.02,2.15-2.38,3.57-.31,1.22.41,2.21,1.39,2.64.94.41,1.97.32,2.94.6l.59.25.09.09c-1.09.88-2.39,2-2.7,3.52-.03.14.03.2.13.2.32,0,1.11-.55,1.16-.59.52-.43,1.28-1.06,1.44-1.81l.02-.06.59-.49c.87-.76,2-1.79,2.16-3.09l-.03-.15c-.61-.44-1.33-.6-2.04-.69-.7-.09-1.47-.11-2.1-.5-.64-.4-1.15-1.16-.94-2l.18-.44.08-.13.04-.08.21-.27v-.02s.44-.46.44-.46c.15-.15,1.1-1.2.57-1.35"/>
      <path class="cls-3" d="M110.94,64.96c-.25,0-.72.25-.82.3-.23.11-.46.28-.68.49-1.8.49-3.81.59-5.58,1.06-2.67.7-5.32,1.49-7.95,2.36-4.92,1.64-9.75,3.64-14.42,6.06-8.3,4.3-16.33,9.78-22.56,17.36-.48.58-.51.8-.32.8.41,0,1.81-.94,2.17-1.39,7-8.51,17.17-14.02,26.77-17.93,4.82-1.96,9.77-3.52,14.77-4.83,3.23-.84,6.81-.34,8.69-3.89.15-.29.08-.38-.06-.38"/>
      <path class="cls-3" d="M186.07,80.95c-.51,0-2.66,1.73-2.6,2.42.17,1.88-.67,4.02-1.35,5.74-.75,1.87-1.7,3.67-2.68,5.41-1.96,3.5-4.42,6.6-6.82,9.72-.28.36-.73.97-.08.98h0c.61,0,1.57-1.11,1.93-1.57,2.63-3.42,5.33-6.83,7.46-10.68,1-1.82,2.01-3.68,2.8-5.63.4-1,.69-2.03.99-3.07.27-.95.52-1.69.51-2.62.05-.14.06-.28.02-.4l-.07-.22s-.05-.06-.1-.06"/>
      <path class="cls-3" d="M144.57,0c-1.36,0-2.76.91-2.8,2.5-.04,1.68.96,2.53,2.05,2.56.18.09.38.14.58.14.31,0,.65-.11,1.01-.35-.13.57-.19,1.06-.2,1.92,0,1.75-.21,3.52-.34,5.27-.25,3.38-.37,6.35.58,9.57,1.03,3.48,2.05,6.78,3.68,9.96,2.9,5.67,5.46,11.51,9.67,16.06.53.57,1.08,1.12,1.66,1.64l1.07-1c-.24-.22-.48-.44-.72-.67-.12-.12-.25-.24-.37-.37l-.6.48c.02-.35.04-.7.05-1.05-3.55-3.79-6.22-8.64-8.45-13.47-2.41-5.23-5.79-11.28-5.64-17.34.07-3.09.38-6.15.47-9.23.04-1.14-.02-1.98.31-2.99.07-.06.14-.11.2-.17.71-.69.76-1.76.1-2.16-.04-.59-.27-1.01-.75-1.01-.08,0-.17.01-.27.04-.39-.21-.84-.32-1.29-.32M142.96,2.35c-.2-.64-.07-1.23.75-1.35.02,0,.04,0,.07,0-.16.15-.3.33-.44.55-.17.27-.29.54-.37.81M143.88,2.52c-.1-.55-.05-1.05.25-1.23.06-.04.12-.05.18-.05s.12.02.18.05c-.29.36-.53.8-.61,1.24M145.09,2.62l.15-.22c.05.16.09.33.11.5-.12-.09-.2-.18-.27-.28M144.67,4.21s-.08-.08-.12-.13c.1.05.21.09.32.11-.04.02-.09.02-.14.02-.02,0-.04,0-.06,0"/>
      <path class="cls-3" d="M155.62,9.88c-.07,0-.14,0-.22.02-.42.08-.77.48-1,.94-.71.5-1.27,1.43-.7,1.86l.49-.37c.04.09.08.17.15.23l-.23.32c-.73.85-1.18,1.91-1.53,3.02-1.03,3.3-.29,6.45.95,9.52,1.44,3.55,3.03,7.04,4.43,10.61,1.39,3.52,2.06,6.86,1.95,10.62,0,.35-.02.7-.05,1.05l.6-.48.5-.4c.34-5.18-.86-9.44-2.88-14.05-1.05-2.38-2-4.8-3.01-7.21-1-2.4-2.02-4.87-1.92-7.59.04-1.24.29-2.5.76-3.62.29-.68.66-1.19,1.06-1.71.03,0,.06-.02.09-.03l.95-.95c0-.23,0-.42-.05-.58.21-.58.26-1.21-.33-1.21"/>
      <path class="cls-3" d="M55.27,145.47c-.22,0-.55.21-.79.39-5.01.94-10.04,1.79-15.11,2.16-.69.05-1.38.76-1.85,1.27-.09.1-1.05,1.35-.59,1.35h.02c5.45-.4,10.84-1.34,16.22-2.36.52-.1,1.11-.7,1.47-1.06l.9-1.32-.04-.22c-.03-.15-.12-.21-.23-.21"/>
      <path class="cls-3" d="M62.93,148.68c-.23,0-.62.22-.76.32-.58.39-1.37,1.03-1.68,1.76l-.15.12-.66.47c-.58.39-1.19.72-1.81,1.03-1.3.64-2.65,1.11-4.03,1.5-2.82.8-5.7,1.26-8.53,1.98-.73.19-1.46.96-1.93,1.57-.18.23-.69,1.01-.24,1.01.04,0,.1,0,.16-.02,3.65-.93,7.4-1.42,10.96-2.78,1.68-.65,3.32-1.47,4.83-2.52,1.42-.99,3.29-2.22,3.96-4.03.11-.3.03-.4-.12-.4"/>
      <path class="cls-3" d="M228.9,62.29c-.55,0-2.18,1.74-2.33,1.98-1.37,2.18-2.45,4.6-3.98,6.67-.9,1.21-1.95,1.6-3.09,1.6-1.07,0-2.21-.34-3.36-.67-.69-.19-1.4-.29-2.12-.29-4.61,0-9.38,3.82-10.89,8.61-.1.31-.02.41.13.41.22,0,.59-.22.74-.32.57-.37,1.49-1.11,1.72-1.85.4-1.26.93-2.47,2-3.14,1.04-.65,2.35-1.13,3.54-1.18.08,0,.16,0,.24,0,1.02,0,2,.27,2.97.53.96.26,1.92.53,2.9.53.62,0,1.25-.11,1.91-.38,4.07-1.72,6.25-6.04,8.51-9.95.79-.57,1.62-1.42,1.42-1.95l-.17-.47c-.03-.08-.09-.11-.16-.11"/>
      <path class="cls-3" d="M223.61,36.72c-.32,0-1.09.55-1.15.6-.5.4-1.32,1.07-1.44,1.81-.28,1.7-.93,3.22-1.54,4.79-.62,1.58-1.16,3.18-1.83,4.73-.68,1.58-1.41,3.17-2.29,4.62-.61,1.01-1.29,1.22-2.44,1.51-2.41.61-4.69.84-6.87,2.27-2.38,1.56-4.28,3.84-5.71,6.46-.16.29-.08.38.07.38.25,0,.71-.24.81-.3.68-.44,1.31-1.1,1.72-1.85.59-1.07,1.27-2.11,2.26-2.75,1.1-.71,2.34-.99,3.58-1.22,2.49-.47,4.67-1.1,6.65-2.96,2.3-2.16,3.72-5.35,4.98-8.34.65-1.55,1.19-3.14,1.81-4.7.63-1.58,1.24-3.14,1.52-4.85.02-.15-.03-.21-.14-.21"/>
      <path class="cls-3" d="M262.36,52.15c-.17,0-.34.02-.52.05-1.4.28-2.71,1.02-3.9,1.88-1.27.92-2.44,2.01-3.64,3.05-1.26,1.09-2.67,2.42-4.28,2.75-.35.07-.71.1-1.06.1-.44,0-.88-.04-1.33-.08-.45-.04-.9-.08-1.34-.08-.23,0-.45.01-.68.04-1.11.13-2.09.6-3,1.32-2.02,1.61-3,3.76-3.61,6.38-.03.14.02.2.12.2.32,0,1.12-.55,1.17-.59.54-.43,1.27-1.07,1.44-1.82.13-.58.28-1.16.47-1.72l.42-.99.23-.08c.37-.09.74-.11,1.11-.11.12,0,.24,0,.35,0,.79.02,1.56.12,2.34.12.38,0,.76-.03,1.15-.1,1.23-.22,2.38-.92,3.44-1.64,2.1-1.41,3.86-3.32,5.89-4.83.9-.67,2.01-1.26,3.12-1.26.16,0,.32.01.48.04.88.14,1.63.46,2.46.46.25,0,.51-.03.78-.1.73-.19,1.47-.96,1.94-1.58.17-.22.69-1.01.25-1.01-.04,0-.1,0-.17.03-.21.06-.43.08-.64.08-.5,0-.99-.13-1.48-.25-.5-.12-1-.25-1.51-.25"/>
    </g>
  </g>
</svg>