<?xml version="1.0" encoding="UTF-8"?>
<svg id="Layer_2" data-name="Layer 2" xmlns="http://www.w3.org/2000/svg" xmlns:xlink="http://www.w3.org/1999/xlink" viewBox="0 0 145.2 259.07">
  <defs>
    <style>
      .cls-1 {
        clip-path: url(#clippath);
      }

      .cls-2 {
        stroke-width: 0px;
      }

      .cls-2, .cls-3, .cls-4 {
        fill: none;
      }

      .cls-3 {
        stroke-miterlimit: 10;
        stroke-width: 2.35px;
      }

      .cls-3, .cls-4 {
        stroke: #b35c91;
      }

      .cls-4 {
        stroke-linecap: round;
        stroke-linejoin: round;
        stroke-width: 1.78px;
      }
    </style>
    <clipPath id="clippath">
      <rect class="cls-2" width="145.2" height="259.07"/>
    </clipPath>
  </defs>
  <g id="o2">
    <g class="cls-1">
      <path class="cls-3" d="M63.61,257.81c4.29-16.09,8.63-32.28,15.84-47.29,7.21-15.01,17.55-28.92,31.64-37.8,8.97-5.65,19.96-9.85,24.53-19.42,5.51-11.54-.92-25.91,3.8-37.79,8.26,18.91,5.21,42.26-7.61,58.43-7.85,9.89-18.68,16.86-28.34,24.98-9.66,8.12-18.67,18.32-20.56,30.79-.53,3.51-.48,7.11-1.2,10.59-1.92,9.27-9.76,17.02-18.09,17.5ZM80.9,72.99c3,4.92,4.66,10.65,4.77,16.41.29,15.21-5.78,31.83-15.33,43.68-4.99,6.19-14.13,13.66-19.12,19.85-3.71,4.61-7.3,4.6-9.78,9.97-2.49,5.37-3.61,11.6-1.86,17.25M42.83,254.65c-4.13-15.41-26.1-27.31-35.29-40.77-8.26-12.1-8.51-30.13-.62-42.48,2.43-3.8,5.84-6.89,9.47-9.57,11.84-8.75,26.35-13.7,37.22-23.62,16.67-15.21,21.83-39.28,22.95-61.82,1.12-22.54-.84-45.58,5.33-67.29-.22,11.04,2.05,22.13,6.6,32.19,3.93,8.69,9.5,16.59,12.96,25.48,3.62,9.3,4.79,19.39,4.95,29.38.11,6.45-.22,13.07-2.74,19.01-4.19,9.88-13.65,16.3-22.39,22.53-12.22,8.71-24.72,19.29-27.93,33.95-2.47,11.29,1.07,22.9,3.52,34.2,2.05,9.43,3.36,19.07,3.13,28.72-.16,6.43-1.3,13.44-6.1,17.71-2.66,2.36-6.12,3.58-9.48,4.74,0,0-.8.51-1.57-2.35Z"/>
      <path class="cls-4" d="M99.21,193.78c.47-5.4,19.34-15.67,24.31-18.05,6.41-3.07,10.38-12.2,13.99-18.32"/>
    </g>
  </g>
</svg>