<?xml version="1.0" encoding="UTF-8"?>
<svg id="Layer_2" data-name="Layer 2" xmlns="http://www.w3.org/2000/svg" viewBox="0 0 437.99 114.25">
  <defs>
    <style>
      .cls-1 {
        fill: none;
        stroke: #fff;
        stroke-miterlimit: 10;
      }
    </style>
  </defs>
  <g id="shell-cream">
    <path class="cls-1" d="M409.49,1.1c4.71.1,9.6.26,13.81,2.36,8.49,4.24,11.5,14.69,13.09,24.05,1.06,6.21,1.86,12.73-.11,18.72-4.23,12.88-19.27,18.51-32.69,20.43-15.29,2.19-30.82,1.82-46.26,1.44-40.94-1.01-81.88-2.01-122.82-3.02-21.04-.52-42.54-.97-62.57,5.48s-38.66,21.21-43.9,41.59c-2.07-8.85,1.38-18.72-2.48-26.95-5.86-12.47-23.17-12.61-36.92-11.67-23.89,1.64-48.5.7-70.81-8-7.31-2.85-15.05-7.4-16.92-15.03-2.85-11.66,9.53-21.25,20.87-25.2C65.46,10.1,118.36,10.89,164.08,7.51c51.91-3.84,103.95-6.1,156-6.78,29.8-.39,59.61-.27,89.41.38Z"/>
  </g>
</svg>