<?xml version="1.0" encoding="UTF-8"?>
<svg id="Layer_2" data-name="Layer 2" xmlns="http://www.w3.org/2000/svg" xmlns:xlink="http://www.w3.org/1999/xlink" viewBox="0 0 203 205.14">
  <defs>
    <style>
      .cls-1 {
        clip-path: url(#clippath);
      }

      .cls-2 {
        stroke-width: 0px;
      }

      .cls-2, .cls-3 {
        fill: none;
      }

      .cls-3 {
        stroke: #522d1d;
        stroke-linecap: round;
        stroke-linejoin: round;
        stroke-width: 2.16px;
      }
    </style>
    <clipPath id="clippath">
      <rect class="cls-2" y="0" width="203" height="205.14"/>
    </clipPath>
  </defs>
  <g id="o2">
    <g class="cls-1">
      <path class="cls-3" d="M113.79,91.51c-.07.5-.14.99-.17,1.24-.02.14-1.91.37-4.22.53-4.19.28-10.93,5.87-14.93,12.7-3.34,5.68-7.82,16.61-.85,22.04,4.02,3.13,12.32,2.78,16.9,4.03,2.98.81,7.48,3.07,10.74,1.99,2.9-.96,6.79-5.06,9.7-6.74,8.63-4.96,11.87-12.22,14.67-21.52,2.79-9.26,7.81-21.34,4.51-31.43-2.9-8.88-10.13-18.28-18.06-22.2-4.35-2.15-11.85-4.06-16.62-5.27-4.28-1.09-10.38-1.84-14.91-1.56-11.38.72-19.25,9.66-26,17.62-10.29,12.14-15.76,27.46-23.87,41.1-6.29,10.59-12.18,26.71-9.1,39.04,1.51,6.05,3.93,11.6,7.36,16.69,1.94,2.88,3.57,4.24,5.88,6.81,3.3,3.67,4.79,7.96,8.01,11.53,7.79,8.62,18.74,10.38,29.26,12.73,13.66,3.06,23.45,2.47,36.43-3.4,6.06-2.74,9.46-4.18,14.43-8.76,5.17-4.76,10.95-8.34,15.81-13.53,5-5.33,8.22-11.22,13.23-16.38,5.67-5.85,10.7-12.79,15.12-19.58,5.74-8.82,13.49-21.04,14.63-31.6,1.28-11.84-5.71-23.34-13.24-32.14-15.24-17.82-30.29-35.16-47.26-51.48-6.79-6.52-18.13-12.84-27.55-12.88-4.11-.02-8.22.05-12.34.01-7.15-.06-9.15.83-14.85,5.25-10.11,7.84-19.85,15.7-29.78,23.69-3.93,3.16-6.61,7.14-9.87,10.7-4.69,5.14-9.49,8.79-13.29,14.77-6.1,9.62-13.81,17.68-20.51,26.71-6.77,9.13-9.72,16.77-10.54,27.94-.36,4.85-2.09,8.66-1.25,13.59.71,4.13,2.21,8.36,3.39,12.36,1.5,5.06,2.41,9.92,5.06,14.41,2.95,4.99,3.41,9.75,5.85,14.66,2.63,5.3,7.85,12.1,11.43,16.73,2.36,3.05,5.54,10.23,9.39,12.56,3.56,2.15,10.26,2.58,13.96,3.93,2.81,1.03,6.14,4.34,8.08,5.06,1.72.28,5.5.55,8.44.6"/>
    </g>
  </g>
</svg>