<?xml version="1.0" encoding="UTF-8"?>
<svg id="Layer_2" data-name="Layer 2" xmlns="http://www.w3.org/2000/svg" xmlns:xlink="http://www.w3.org/1999/xlink" viewBox="0 0 211.99 190.06">
  <defs>
    <style>
      .cls-1 {
        clip-path: url(#clippath);
      }

      .cls-2 {
        fill: none;
      }

      .cls-2, .cls-3 {
        stroke-width: 0px;
      }

      .cls-3 {
        fill: #396535;
      }
    </style>
    <clipPath id="clippath">
      <rect class="cls-2" y="0" width="211.99" height="190.06"/>
    </clipPath>
  </defs>
  <g id="o2">
    <g class="cls-1">
      <path class="cls-3" d="M206,4.56s-.02.02-.03.03c-8.18,9.57-22.1,10.89-33.47,14.39-6.87,2.12-13.22,5.04-18.59,9.75-3.07-2.91-9.42-9.35-13.43-9.35-.12,0-.23,0-.34.02-.4.04-.85.17-1.33.37.51,1.22,1.03,2.45,1.54,3.67.35.13.72.29,1.1.49,3.64,1.87,6.95,4.99,9.92,7.74.06.06.14.08.23.08.61,0,1.77-1.1,1.97-1.29,9.1-9.04,23.02-10.12,34.66-13.98,6.56-2.17,12.53-5.24,17.43-9.96.18,2.8-2.68,3.14-3.25,5.47-.49,1.98-.3,3.66-.36,5.65-.14,4.82-1.95,9.13-4.21,13.26,3.41-5.46,5.74-11.49,7.03-17.77.04-.33.09-.66.15-.99.04-.28.11-.54.19-.8.39-2.23.65-4.5.78-6.77M203.05,24.53c-2.51,4.92-5.72,9.49-9.53,13.7-.86,1.34-1.79,2.64-2.82,3.8-2.09,2.34-4.71,4.01-7.35,5.65-2.98,2.46-5.94,4.92-8.87,7.39,1.58-1.2,3.19-2.37,4.85-3.48,3.83-2.57,7.92-4.79,11.31-7.96,5.25-4.92,9.6-12.32,12.36-18.95.02-.05.04-.1.06-.15M160.86,66.99c-7.13,6.55-13.93,13.44-20.17,21.01,6.5-7.19,13.2-14.26,20.17-21.01M62.26,80.74c-.73,1.48-1.36,3.02-1.86,4.62-.66,2.11-3.67,23.02-7.7,23.02-.25,0-.51-.08-.77-.25-2.59-1.73.92-6.77,1.64-8.77,1.37-3.81,1.43-7.59.67-11.53-.03-.14-.12-.2-.25-.2-.55,0-1.83,1.11-1.99,1.27-3.71,3.41-10.57,1.89-14.93,4.81-1.95,1.31-3.52,2.86-4.24,4.89-6.81-.14-13.53-.86-20.24-2.16-.03,0-.05,0-.08,0-.81,0-3.06,1.81-2.77,2.57,2.54,6.67,3.86,13.46,3.93,20.6,0,.19,0,.38,0,.57,2.07,1.46,4.09,4.93,4.43,7.85.31.41.53.88.59,1.47.15-.5,1.3-1.74,1.82-2.03.42-.24.81-.41,1.18-.53-.22-.96-.94-1.66-1.9-2.68-3.02-3.2-2.94-4.4-3.1-9.1-.18-5.3-1.19-10.4-2.81-15.38,6.19.99,12.4,1.48,18.7,1.48.83,0,2.88-1.52,2.88-2.42.04-6.21,9.64-4.98,13.49-6.67.88-.39,1.64-.85,2.35-1.38.62,3.68.46,7.08-.86,10.66-.78,2.12-3.13,5.26-2.29,7.73.19.54.42.97.69,1.29.54-.35,1.11-.64,1.72-.87,1.2-.44,2.43-.48,3.68-.48h.33c.15,0,.31,0,.46,0h.03c2.39-2.17,3.87-4.92,4.88-7.96.14-3.34-.08-6.74-.06-10.03,0-.76,1.73-1.88,2.59-2.2.02-.14.05-.28.07-.42-.13-2.58-.21-5.17-.29-7.75M144.89,81.26c-5.19,5.62-10.14,11.41-14.77,17.25-9.6,12.1-14.72,26.07-20.88,39.73.12.23.21.48.25.74,1.91-4.32,3.69-8.71,5.63-13.01,3.99-8.84,8.82-17.27,14.33-25.25,4.72-6.82,9.9-13.3,15.45-19.46M18.7,129.65s0,.07,0,.11c.03-.02.06-.05.09-.08-.04,0-.07-.01-.09-.03M108.07,142.13c-.35.37-.7.68-1.07.94-1.48,3.09-3.05,6.16-4.77,9.17-1.22,2.13-2.54,4.24-3.99,6.27,2.02-2.37,3.8-4.97,5.42-7.77,1.62-2.8,3.06-5.68,4.42-8.61M99.79,158.62c-1.39,1.61-2.88,3.15-4.49,4.57-.93.82-1.95,1.6-3.03,2.35-1.31,1.27-2.7,2.46-4.18,3.53-2.7,1.95-5.69,3.14-8.64,4.43-1.72,1.2-3.32,2.47-4.68,3.9,3.02-1.81,6.91-3.01,9.41-4.46,2.75-1.6,5.3-3.51,7.67-5.62,2.95-2.62,5.59-5.56,7.95-8.7M73.99,176.25c-3.63,2.27-6.79,5.65-6.63,9.92.14-.22.35-.46.61-.69,1.04-3.57,3.26-6.63,6.03-9.23"/>
      <path class="cls-3" d="M11.02,119.33c-2.17,0-4.42,1.3-6,2.55-2.07,1.64-3.81,3.79-4.59,6.35-1.27,4.11.57,6.26,2.5,9.66,2.17,3.85.1,8.58,2.84,12.2,1.32,1.75,2.91,3.16,4.05,5.06,1.15,1.94,2.02,4.03,3.15,5.98,2.56,4.44,6.75,6.75,11,9.34,4.68,2.86,9.38,5.71,14.13,8.45,7.32,4.23,16.58,10.81,25.64,10.81,1.21,0,2.41-.12,3.61-.37.05-1.37.27-2.66.63-3.9-.26.23-.47.47-.61.69-.14.23-.19.44-.11.61.06.11.11.22.17.33-.33.02-.65.03-.98.03-4.02,0-7.92-1.47-11.64-3.24-4.88-2.33-9.6-5.07-14.27-7.78-4.75-2.75-9.44-5.6-14.13-8.46-.18-.11-.36-.22-.54-.33-.41.01-.83.02-1.24.02-1.58,0-3.17-.08-4.77-.23l-.17-.21c-.02-1.37-.16-2.77-.37-4.19-1.39-1.27-2.62-2.73-3.62-4.52-1.01-1.82-1.82-3.75-2.89-5.53-1.22-2.04-3.06-3.49-4.34-5.44-1.34-2.05-1.19-4.36-1.29-6.71-.11-2.45-.53-3.97-1.88-6.04-2.17-3.35-3.99-9.42.78-11.96.84-.45,1.62-.65,2.34-.65,4.42,0,6.58,7.49,6.65,10.95l.17.21c1.03-.07,1.95-.42,2.76-.95.69-1.02,1.53-2,2.54-2.94-.32,0-.64.09-.96.27-.38.21-.63.3-.76.3,0,0-.01,0-.02,0-.03.02-.06.05-.09.08-.44.39-.83.89-1.09,1.31.5-.83.63-1.91.49-3.07-.34-2.92-2.36-6.39-4.43-7.85-.33-.23-.65-.41-.98-.53-.54-.2-1.11-.29-1.67-.29M71.08,185.89c-.3.59-.54,1.2-.7,1.84-.04.16-.21.39-.45.63.84-.57,1.72-1.37,1.45-1.89-.1-.19-.2-.39-.3-.58"/>
      <path class="cls-3" d="M208.95,0c-.65,0-2.85,1.87-2.86,2.45-.02.71-.05,1.41-.09,2.11-.13,2.28-.39,4.54-.78,6.77-.1.6-.22,1.2-.34,1.79-1.29,6.28-3.62,12.31-7.03,17.77-1.24,2-2.63,3.92-4.17,5.74-7.38,8.79-17.6,15.17-26.25,22.66-7.93,6.86-15.52,14.16-22.54,21.96-5.54,6.16-10.73,12.64-15.45,19.46-5.52,7.98-10.34,16.41-14.33,25.25-1.94,4.3-3.72,8.68-5.63,13.01.12.82-.22,1.79-1.19,2.9-.08.09-.16.18-.24.26-1.35,2.93-2.8,5.81-4.42,8.61-1.62,2.8-3.4,5.4-5.42,7.77-2.75,3.24-5.95,6.05-9.78,8.36-3.82,2.3-7.89,4.2-11.47,6.88-1.04.78-2.05,1.61-2.99,2.5-2.76,2.6-4.99,5.66-6.03,9.23-.36,1.24-.58,2.54-.63,3.9,0,.19-.01.37-.01.56,0,.08.05.11.12.11.42,0,1.77-.94,2.49-1.69.24-.25.4-.47.45-.63.16-.64.4-1.25.7-1.84,2.76-5.43,10.75-8.89,15.34-12.32,2.96-2.21,5.77-4.6,8.47-7.13,6.38-5.98,11.98-12.72,17.29-19.64,13.16-17.12,25.6-34.01,41.09-49.19,14.45-14.15,29.81-27.6,42.4-43.5,10.74-13.56,19.04-30.33,15.48-47.54.3-.35.47-.68.36-.94-.54-1.26-1.09-2.51-1.64-3.77-.16-.47-.32-.93-.5-1.4-.01-.03-.04-.04-.09-.04-.01,0-.02,0-.04,0-.05-.11-.1-.23-.15-.34-.03-.06-.08-.09-.16-.09M203.05,24.53c2.41-4.74,4.17-9.82,5.17-15.23,4.28,21.18-9.66,40.64-23.59,55.85-14.68,16.02-31.39,30.03-46.09,46.03-13.28,14.45-23.55,31.22-36.36,46.04-7.62,8.81-16.04,15.03-25.6,21.5-2.01,1.36-3.89,2.8-5.46,4.49.75-2.21,2.04-4.11,3.66-5.81,1.36-1.42,2.95-2.7,4.67-3.9,4.09-2.85,8.88-5.23,12.82-7.96,1.09-.75,2.11-1.53,3.04-2.35,1.61-1.43,3.1-2.96,4.49-4.57,3.4-3.95,6.2-8.4,8.62-13.03,4.25-8.14,7.36-16.82,11.34-25.09,4.77-9.9,10.65-19.22,17.32-27.94,1.18-1.55,2.39-3.06,3.62-4.56,6.24-7.57,13.04-14.45,20.17-21.01,4.43-4.07,8.99-8.02,13.62-11.92,2.93-2.47,5.89-4.93,8.87-7.39.63-.52,1.27-1.05,1.9-1.57,2.99-2.47,5.76-5.1,8.27-7.88,3.81-4.21,7.02-8.78,9.53-13.7"/>
      <path class="cls-3" d="M62.57,88.88s-.06.02-.09.03c-.86.32-2.58,1.44-2.59,2.2-.01,3.28.2,6.69.06,10.03-.05,1.27-.16,2.54-.34,3.78-.14.92-.34,1.86-.7,2.72-.5,1.15-1.13,1.31-2.36,1.41-.49.04-.98.05-1.48.05h-.03c-.15,0-.31,0-.46,0h-.33c-1.24,0-2.48.03-3.67.48-.61.22-1.18.52-1.72.87-1,.64-1.9,1.46-2.76,2.28-1.85,1.78-3.65,3.6-5.48,5.41-3.26,3.22-6.53,6.44-9.79,9.67-1.47-.58-2.95-1.12-4.44-1.63-.04-.02-.09-.02-.14-.02-.43,0-1.1.49-1.66,1.06.95.53,1.86,1.44,3.06,2.38.56.44,1.11.75,1.65.95.57-.3,1.25-.95,1.45-1.15,4.04-3.99,8.09-7.98,12.13-11.98,1.1-1.09,2.2-2.18,3.31-3.27.9-.89,1.72-1.93,3-2.26.79-.2,1.6-.24,2.41-.24.26,0,.51,0,.77,0,.24,0,.49,0,.73,0,1.02,0,2.03-.06,3.03-.42,3.17-1.15,5.52-4.01,6.3-7.24.48-1.99.48-4.04.49-6.06,0-1.23.01-2.46.02-3.69-.15-1.78-.26-3.56-.35-5.34"/>
      <path class="cls-3" d="M64.88,121.35c-.79,0-2.24,1.52-2.51,1.95-1.63,2.58-3.37,5.04-5.39,7.33-1.18,1.33-2.13,1.86-3.01,1.86-1.32,0-2.49-1.17-4.08-2.59-2.18-1.94-4.35-3.42-7-3.42-.76,0-1.56.12-2.42.39-3.23,1.02-6.22,3.98-9.41,3.98-.58,0-1.17-.1-1.77-.33-.54-.21-1.09-.51-1.65-.95-1.2-.94-2.1-1.84-3.06-2.38-.53-.3-1.08-.47-1.69-.47-.37,0-.77.06-1.2.21-.36.12-.75.29-1.18.53-.52.29-1.68,1.53-1.83,2.03-.02.08-.02.14.01.17.02.02.05.03.09.04,0,0,.01,0,.02,0,.13,0,.38-.09.76-.3.32-.18.64-.26.96-.27-1.02.95-1.86,1.93-2.54,2.94-6.02,8.9-.26,20.25,1.33,30.65.21,1.42.35,2.82.37,4.19l.17.21c1.59.15,3.18.23,4.77.23.41,0,.83,0,1.24-.02,10.1-.25,19.85-3.58,28.12-9.63,6.12-4.47,11.5-10.65,18.85-13.13,3.37-1.14,7.1-1.52,10.87-1.52,4.29,0,8.65.49,12.6.88,1.98.19,3.94.56,5.8.56,1.75,0,3.41-.32,4.9-1.4.37-.27.72-.58,1.07-.94.08-.08.16-.17.24-.26.96-1.1,1.3-2.08,1.18-2.9-.04-.26-.12-.51-.25-.74-.62-1.13-2.23-1.87-4.17-2.12-6.85-.87-13.38-1.59-19.96-3.88-7.21-2.51-13.87-6.21-19.95-10.81-.08-.06-.17-.09-.27-.09M51.84,135.69c.83,0,1.73-.38,2.86-1.27,3.29-2.62,6.1-6.14,8.51-9.7,11.6,8.46,24.39,12.47,38.63,13.98,1.12.12,3.56.11,4.12,1.31.68,1.47-.48,1.81-1.81,1.81-1.04,0-2.19-.21-2.63-.26-3.91-.44-7.83-.75-11.76-.87-1.08-.03-2.15-.06-3.21-.06-5.51,0-10.77.59-15.82,3.25-5.45,2.87-9.92,7.17-14.72,10.96-7.04,5.55-15.42,8.97-24.37,9.75-1.32.11-2.64.17-3.96.17-.45,0-.9,0-1.35-.02-2.86-.08-3.02-.73-3.76-3.3-.91-3.14-1.32-6.5-2.22-9.68-1.86-6.57-4.65-16.87,1.34-22.33,1.59.82,3.04,3.03,4.28,3.65.78.39,1.59.55,2.41.55.97,0,1.95-.22,2.89-.55,2.2-.76,3.95-2.35,6.05-3.26,1.1-.47,2.1-.68,3.03-.68,2.67,0,4.79,1.69,7.01,3.73,1.77,1.63,2.99,2.83,4.46,2.83"/>
      <path class="cls-3" d="M108.79,92.8c-.52,0-1.03.1-1.49.31l-16.23,9.27c-1.18.91-3.23,1.52-2.81,2.55.97,2.52,3.51,3.69,5.26,5.54,1.1,1.16,2.37,2.4,3.97,2.49.06,0,.12,0,.18,0,1.03,0,2.01-.47,2.92-.98,3.79-2.14,7.12-5.09,9.71-8.6,1.41-1.91,2.64-4.11,2.65-6.49,0-.78-.13-1.58-.55-2.23-.74-1.15-2.21-1.87-3.61-1.87"/>
      <path class="cls-3" d="M136.27,13.68c-1.1.14-1.84,1.14-2.62,1.93-.55.55-1.35,1.03-2.08,1.03-.3,0-.6-.08-.86-.28l-.95-1.22c-.57-.67-1.45-.88-2.36-.88-.49,0-1,.06-1.46.15-2.89.52-5.7,1.51-8.28,2.92-.65.35-1.31.74-2.04.83-.11.01-.23.02-.34.02-.77,0-1.53-.29-2.29-.46-.71-.17-1.43-.24-2.15-.24-2.87,0-5.75,1.21-8.36,2.53-10.51,5.31-19.92,12.77-27.48,21.79-6.11,7.29-11.11,15.86-12.45,25.28-.57,4.06-.46,8.17-.34,12.27.01.47.03.94.04,1.4.08,2.58.16,5.17.29,7.75,0,.13.01.26.02.38.09,1.78.21,3.57.35,5.34.57,6.82,1.63,13.57,3.87,20.02l-1.37-2.97c.62,1.52,1.25,3.05,1.88,4.57.2.5.43,1.02.88,1.31.25.16.52.22.81.22.47,0,.97-.17,1.41-.36,4.44-1.94,7.6-5.9,11-9.35,7.24-7.34,16.31-12.85,26.15-15.91,3.05-.94,6.17-1.66,9.12-2.85,12.19-4.88,19.89-16.93,25.39-28.85,2.33-5.05,4.44-10.38,4.46-15.94.01-5.82-2.28-11.36-4.53-16.72-.55-1.31-1.1-2.63-1.65-3.94-.51-1.22-1.03-2.44-1.54-3.67-.85-2.03-1.7-4.06-2.56-6.09"/>
    </g>
  </g>
</svg>