<?xml version="1.0" encoding="UTF-8"?>
<!-- colour: #ccbb00 yellow -->
<svg id="Layer_2" data-name="Layer 2" xmlns="http://www.w3.org/2000/svg" xmlns:xlink="http://www.w3.org/1999/xlink" viewBox="0 0 268.15 373.11">
  <defs>
    <style>
      .cls-1 {
        stroke: #ccbb00;
        stroke-linecap: round;
        stroke-linejoin: round;
        stroke-width: 1.83px;
      }

      .cls-1, .cls-2 {
        fill: none;
      }

      .cls-3 {
        clip-path: url(#clippath);
      }

      .cls-2, .cls-4 {
        stroke-width: 0px;
      }

      .cls-4 {
        fill: #ccbb00;
      }
    </style>
    <clipPath id="clippath">
      <rect class="cls-2" x="0" width="268.15" height="373.11"/>
    </clipPath>
  </defs>
  <g id="o2">
    <g class="cls-3">
      <path class="cls-4" d="M172.38,224.44c-5.23,1.11-10.06,3.03-14.63,4.87-5.63,2.32-12.44,5.04-16.83,11.42-2.35,3.42-3.13,6.26-3.87,8.81-.75,2.52-1.64,5.38-4.53,10.82l-.03.03-.07.08c-3.77,4.6-6.19,10.01-7.52,15.59-1.93,8.31-4.5,21.46-2.88,32.31.22,1.4.47,2.79.76,4.18,2.33,10.95,7.22,21.75,15.83,29.65,6.44,5.88,14.19,9.5,21.75,12.38,7.74,2.93,16.16,5.41,25.1,5.13,2.78-.09,5.51-.45,8.16-1.01,7.9-1.69,15.17-5.14,21.87-8.86,18.1-10.09,35.34-24.18,44.2-43.86,3.11-6.94,5.19-14.73,4.63-22.79-.13-1.86-.4-3.69-.78-5.48-1-4.69-2.75-9.1-4.79-13.2-6.31-12.65-16.31-23.92-29.52-30.06-7.83-3.62-16-5.16-23.61-6.96-9-2.08-18.75-4.91-29.19-3.74-1.38.16-2.74.39-4.07.68M138.98,266.01l.29-.33.34-.38.23-.43c3.34-6.16,4.62-10.09,5.44-12.89.85-2.84,1.08-3.92,2.75-6.45,2.37-3.63,7.36-6.07,12.94-8.27,4.49-1.82,8.86-3.51,13.15-4.42.02,0,.03,0,.05,0,1.1-.23,2.18-.41,3.27-.54,8.18-.98,17,1.37,26.25,3.56,7.83,1.83,15.4,3.34,21.96,6.39,11.02,5.09,19.86,14.85,25.45,26.11,1.82,3.65,3.28,7.41,4.07,11.16.3,1.43.52,2.86.61,4.29.44,6.16-1.18,12.62-3.9,18.68-7.68,17.19-23.35,30.31-40.55,39.88-6.34,3.53-12.89,6.57-19.48,7.96-2.21.47-4.43.76-6.65.83-7.12.24-14.5-1.8-21.78-4.58-7.13-2.69-13.85-5.96-19-10.68-6.89-6.29-11.17-15.4-13.23-25.11-.26-1.23-.49-2.46-.68-3.71-1.36-8.47.87-21.25,2.75-29.02,1.06-4.48,2.95-8.63,5.72-12.04"/>
      <path class="cls-4" d="M185.5,263.31c-2.32.49-4.51,1.65-6.56,3.45-2.06,1.81-3.68,3.81-4.88,6.01-1.2,2.2-2.08,4.38-2.65,6.55-.56,2.17-.7,3.96-.4,5.36l.22,1.05c.18.83.57,1.46,1.19,1.9l2.04.42,1.78-1.16.46-1.85-.11-.38-.16-.58-.11-1.14c.04-3.06,1.13-6.08,3.28-9.05,2.16-2.96,4.52-4.73,7.1-5.28,2.1-.44,4.08,0,5.97,1.33,1.88,1.34,3.06,3.12,3.53,5.35.75,3.54-.51,7.82-3.77,12.85-1.17,1.8-3.37,4.58-6.59,8.32-3.22,3.74-5.49,6.61-6.8,8.63-1.65,1.9-2.86,3.79-3.63,5.64-.77,1.85-1.07,3.21-.88,4.09l1.17,1.47c.65.37,1.37.46,2.16.3l1.91-.68c3.46-1.33,6.81-2.78,10.06-4.37,3.25-1.58,10.15-5.11,20.72-10.6l2.82-.26c.79-.17,1.4-.54,1.85-1.14l.44-1.95c-.19-.87-.86-1.46-2.02-1.76-1.16-.3-2.13-.41-2.91-.34-.78.07-1.37.16-1.76.24-.17.04-1.59.76-4.26,2.17-2.67,1.42-6.13,3.18-10.37,5.32-4.25,2.13-8.02,3.94-11.32,5.42l.96-1.3c.86-1.32,2.1-2.91,3.72-4.76,2.93-3.41,5.4-6.71,7.42-9.9,2.02-3.19,3.43-5.79,4.26-7.79.83-2,1.42-3.92,1.76-5.75.34-1.83.48-3.07.44-3.72l-.25-1.83c-.73-3.45-2.66-6.22-5.8-8.29-3.13-2.07-6.47-2.74-10.01-1.98"/>
      <path class="cls-1" d="M26.93,5.21c-.82-.35-1.87.33-2.61.71-2.62,1.36-5.5,2.99-7.67,4.98-2.35,2.14-2.4,2.85-2.45,5.64-.03,1.38-.54,2.62-.44,4.04.12,1.57.55,3.24.76,4.81.49,3.61,1.18,7.67,2.99,10.85,2.42,4.25,7.71,8.94,12.75,8.86,2.52-.04,5.06-.28,7.55-.66,2.45-.38,5.49-.43,7.63-1.9,2.08-1.43,3.97-3.9,4.32-6.42.21-1.51.17-2.62.61-4.13.54-1.83.3-3.26.25-5.19-.12-5.27.24-10.99-2.39-15.71-2.09-3.74-4.59-7.17-8.75-8.76-1.5-.58-3.17-1.28-4.8-1.32-1-.02-3.21-.26-4.15.05-.84.27-2.01,1.38-2.79,1.87-.49.3-.91.31-1.4.87.38.42-.07,1.17-1,1.67"/>
      <path class="cls-1" d="M214.17,110.75c-.54-.23-1.22.21-1.7.46-1.7.88-3.58,1.95-4.99,3.24-1.53,1.39-1.56,1.85-1.6,3.67-.02.9-.35,1.7-.28,2.63.07,1.02.36,2.11.5,3.13.32,2.35.77,4.99,1.95,7.07,1.58,2.77,5.02,5.82,8.3,5.77,1.64-.02,3.3-.18,4.92-.43,1.59-.24,3.57-.28,4.97-1.24,1.36-.93,2.59-2.54,2.82-4.18.14-.98.11-1.71.4-2.69.35-1.19.19-2.12.16-3.38-.08-3.43.16-7.16-1.56-10.23-1.36-2.44-2.99-4.67-5.7-5.7-.98-.38-2.06-.83-3.13-.86-.65-.01-2.09-.17-2.7.03-.55.18-1.3.89-1.81,1.21-.32.2-.59.2-.91.57.25.28-.04.76-.65,1.09"/>
      <path class="cls-1" d="M193.66,161.7c.1-.23-.09-.52-.2-.73-.38-.73-.83-1.53-1.38-2.13-.6-.65-.79-.67-1.57-.68-.39,0-.73-.15-1.12-.12-.44.03-.9.15-1.34.21-1,.14-2.13.33-3.02.84-1.18.68-2.49,2.15-2.47,3.55,0,.7.08,1.41.18,2.1.1.68.12,1.53.53,2.12.4.58,1.08,1.1,1.78,1.2.42.06.73.05,1.15.17.51.15.91.08,1.44.07,1.46-.04,3.06.06,4.37-.67,1.04-.58,2-1.28,2.44-2.44.16-.42.36-.88.37-1.34,0-.28.07-.89-.01-1.15-.08-.23-.38-.56-.52-.77-.09-.14-.09-.25-.24-.39-.12.11-.33-.02-.47-.28"/>
      <path class="cls-1" d="M156.81,54.97c.1-.23-.09-.52-.2-.73-.38-.73-.83-1.53-1.38-2.13-.6-.65-.79-.67-1.57-.68-.39,0-.73-.15-1.12-.12-.44.03-.9.15-1.34.21-1.01.14-2.13.33-3.02.84-1.18.68-2.49,2.15-2.47,3.55,0,.7.08,1.41.18,2.1.1.68.12,1.53.52,2.12.4.58,1.08,1.1,1.78,1.2.42.06.73.05,1.15.17.51.15.91.08,1.44.07,1.46-.04,3.06.06,4.37-.67,1.04-.58,2-1.28,2.44-2.44.16-.42.36-.88.37-1.34,0-.28.07-.89-.01-1.15-.08-.23-.38-.56-.52-.78-.09-.13-.09-.25-.24-.39-.12.11-.33-.02-.47-.28"/>
      <path class="cls-1" d="M266.04,365.55c.1-.23-.09-.52-.2-.73-.38-.73-.83-1.53-1.38-2.13-.6-.65-.79-.67-1.57-.68-.38,0-.73-.15-1.12-.12-.44.03-.9.15-1.34.21-1.01.14-2.13.33-3.02.84-1.18.68-2.49,2.15-2.47,3.55,0,.7.08,1.41.18,2.1.1.68.12,1.53.52,2.12.4.58,1.08,1.1,1.78,1.2.42.06.73.05,1.15.17.51.15.91.08,1.45.07,1.46-.04,3.06.06,4.37-.67,1.04-.58,2-1.28,2.44-2.44.16-.42.36-.88.37-1.34,0-.28.07-.89-.01-1.15-.08-.23-.38-.56-.52-.78-.08-.13-.09-.25-.24-.39-.12.11-.33-.02-.46-.28"/>
      <path class="cls-1" d="M237.37,189.89c-.51-.21-1.16.2-1.62.44-1.62.84-3.4,1.85-4.75,3.08-1.45,1.33-1.48,1.76-1.52,3.5-.02.85-.33,1.62-.27,2.5.07.97.34,2.01.47,2.98.31,2.24.73,4.75,1.85,6.72,1.5,2.63,4.78,5.54,7.9,5.49,1.56-.02,3.13-.18,4.68-.41,1.52-.23,3.4-.26,4.73-1.17,1.29-.89,2.46-2.42,2.68-3.98.13-.94.11-1.62.38-2.56.33-1.13.18-2.02.15-3.21-.07-3.26.15-6.81-1.48-9.73-1.29-2.32-2.85-4.44-5.42-5.43-.93-.36-1.96-.79-2.97-.82-.62-.01-1.99-.16-2.57.03-.52.17-1.24.85-1.72,1.15-.3.19-.56.19-.87.54.24.26-.04.72-.62,1.04"/>
      <path class="cls-1" d="M9.5,178.55c-.53-.23-1.22.21-1.7.46-1.7.88-3.58,1.95-4.99,3.24-1.53,1.39-1.56,1.85-1.6,3.67-.02.9-.35,1.7-.28,2.63.07,1.02.36,2.11.5,3.13.32,2.35.77,4.99,1.95,7.07,1.58,2.77,5.02,5.82,8.31,5.77,1.64-.02,3.29-.18,4.92-.43,1.59-.24,3.58-.28,4.97-1.24,1.36-.93,2.59-2.54,2.82-4.18.14-.98.11-1.71.4-2.69.35-1.19.19-2.12.16-3.38-.08-3.43.16-7.16-1.56-10.23-1.36-2.44-2.99-4.67-5.7-5.7-.98-.38-2.06-.84-3.13-.86-.65-.01-2.09-.17-2.7.03-.55.18-1.3.89-1.81,1.21-.32.2-.59.2-.91.57.25.28-.05.76-.65,1.09"/>
    </g>
  </g>
</svg>